<?xml version="1.0" standalone="no"?>
<!DOCTYPE svg PUBLIC "-//W3C//DTD SVG 20010904//EN"
 "http://www.w3.org/TR/2001/REC-SVG-20010904/DTD/svg10.dtd">
<svg version="1.0" xmlns="http://www.w3.org/2000/svg"
 width="320.000000pt" height="320.000000pt" viewBox="0 0 320.000000 320.000000"
 preserveAspectRatio="xMidYMid meet">
<metadata>
Created by potrace 1.14, written by Peter Selinger 2001-2017
</metadata>
<g transform="translate(0.000000,320.000000) scale(0.100000,-0.100000)"
fill="#000000" stroke="none">
<path d="M1359 3056 c-552 -97 -992 -481 -1164 -1014 -51 -158 -60 -224 -60
-447 0 -192 3 -219 27 -322 141 -593 611 -1033 1207 -1129 110 -18 334 -20
441 -4 82 12 243 53 293 75 18 7 52 21 75 31 41 17 42 18 21 26 -12 5 -25 5
-28 0 -6 -9 -41 -12 -41 -4 0 3 8 10 17 17 20 15 26 45 8 45 -7 0 -15 7 -19
15 -5 13 4 18 30 14 4 0 10 4 13 9 3 5 16 12 29 16 18 6 22 4 22 -13 0 -15 5
-19 16 -14 13 5 15 2 10 -14 -5 -17 -1 -22 21 -26 15 -3 31 -3 35 0 14 8 8 43
-7 43 -8 0 -15 5 -15 11 0 5 5 7 12 3 7 -4 8 -3 4 4 -4 7 -16 12 -26 12 -13 0
-17 5 -14 15 8 20 -43 40 -62 24 -10 -8 -14 -8 -14 0 0 6 5 11 10 11 6 0 10 7
10 15 0 8 -3 14 -7 14 -20 -3 -24 2 -13 16 7 8 8 15 3 15 -5 0 -15 -12 -21
-26 -13 -26 -38 -24 -28 3 5 11 2 13 -9 9 -9 -3 -13 -2 -10 4 3 6 1 10 -4 10
-10 0 5 22 37 56 12 12 9 16 -17 25 -17 6 -28 15 -25 20 3 5 -2 9 -10 9 -9 0
-16 5 -16 11 0 6 -5 7 -12 2 -19 -11 -39 -13 -32 -2 8 13 -10 11 -24 -3 -9 -9
-12 -8 -12 5 0 9 -5 17 -11 17 -5 0 -7 -5 -4 -10 3 -6 -1 -13 -10 -17 -10 -3
-20 0 -25 6 -4 7 -11 13 -16 14 -5 1 -8 5 -6 9 1 5 -2 8 -7 8 -5 0 -12 10 -16
23 -4 13 -8 17 -12 9 -2 -6 -9 -9 -15 -6 -7 4 -6 9 1 14 7 4 13 17 14 28 1 23
27 31 27 9 0 -8 11 -13 28 -13 25 0 28 3 24 28 -4 26 -2 28 33 28 30 0 36 -3
31 -16 -3 -9 -6 -19 -7 -22 0 -4 -4 2 -8 12 -4 11 -10 15 -13 10 -4 -5 2 -21
12 -34 16 -20 21 -23 32 -12 10 10 10 15 -2 23 -13 9 -13 10 0 6 20 -5 71 65
56 76 -6 5 -2 7 12 4 14 -3 22 0 22 8 0 22 31 27 46 8 13 -17 13 -17 14 0 0 9
4 17 10 17 5 0 8 -6 6 -12 -1 -7 -1 -10 1 -5 3 4 8 5 12 2 5 -2 7 16 5 41 -3
40 -2 44 11 34 12 -10 15 -10 15 2 0 17 47 41 55 29 8 -14 -6 -43 -19 -38 -7
3 -20 -1 -30 -8 -22 -17 -17 -51 8 -47 21 4 46 -15 46 -35 0 -7 -7 -13 -16
-11 -10 2 -18 -5 -20 -17 -1 -11 -11 -25 -20 -32 -16 -11 -16 -13 -1 -19 9 -3
14 -10 11 -16 -3 -5 2 -16 12 -24 14 -11 15 -17 7 -20 -7 -3 -13 -10 -13 -15
0 -6 5 -7 12 -3 8 5 9 -2 5 -24 -6 -28 -4 -32 16 -32 22 0 22 0 -2 -13 -34
-17 -40 -40 -10 -36 13 2 30 -1 38 -5 9 -6 12 -5 7 2 -3 6 -2 13 3 16 5 3 11
-3 14 -14 3 -13 0 -20 -9 -20 -8 0 -14 -3 -14 -6 0 -10 28 -34 41 -34 19 0 61
51 55 67 -7 18 36 36 90 37 34 1 40 -2 36 -16 -2 -10 -8 -15 -13 -13 -4 3 -7
-4 -6 -15 1 -10 7 -22 15 -25 7 -2 12 1 11 8 -3 25 1 38 12 32 6 -4 8 -13 5
-21 -12 -31 24 -11 75 43 101 107 242 314 219 321 -27 9 -3 52 33 56 25 3 107
247 133 396 20 120 14 424 -11 540 -41 186 -117 366 -222 524 -81 122 -251
296 -372 380 -157 111 -356 198 -551 241 -102 23 -435 29 -541 11z m-425
-1128 c3 -13 1 -27 -4 -32 -15 -15 -12 -30 3 -17 8 6 17 8 21 4 4 -4 3 5 -3
20 -6 15 -8 27 -6 27 13 0 45 -42 40 -51 -4 -5 -2 -16 5 -24 6 -7 13 -36 16
-64 3 -43 1 -52 -17 -62 -12 -6 -19 -7 -16 -2 3 5 1 15 -4 23 -8 12 -12 12
-16 3 -11 -28 -21 -10 -19 33 1 25 -2 47 -6 50 -8 5 -12 -10 -9 -34 1 -7 -2
-12 -6 -11 -19 3 -33 -2 -33 -12 0 -6 8 -9 18 -7 13 4 18 -1 20 -18 1 -13 -3
-24 -9 -24 -6 0 -9 6 -6 14 4 10 -2 13 -24 12 -16 -1 -29 1 -29 5 0 4 -10 5
-22 1 -15 -4 -19 -2 -13 7 4 7 16 11 26 8 12 -3 19 0 19 10 0 10 -6 13 -17 9
-17 -6 -17 -5 -1 7 10 8 15 17 11 20 -3 4 -2 7 4 7 6 0 13 -7 17 -15 3 -8 11
-15 18 -14 10 0 10 2 1 6 -7 2 -13 14 -13 24 0 11 -4 17 -10 14 -6 -3 -7 1 -4
9 3 9 1 16 -5 16 -9 0 -9 5 -1 20 7 14 7 20 0 20 -5 0 -10 4 -10 9 0 5 9 7 20
4 11 -3 18 -9 15 -13 -3 -5 -1 -11 5 -15 6 -3 10 4 10 18 0 41 24 51 34 15z
m1636 12 c0 -5 -4 -10 -10 -10 -5 0 -10 5 -10 10 0 6 5 10 10 10 6 0 10 -4 10
-10z m-1790 -130 c0 -5 -7 -10 -16 -10 -8 0 -12 5 -9 10 3 6 10 10 16 10 5 0
9 -4 9 -10z m-400 -50 c0 -5 -2 -10 -4 -10 -3 0 -8 5 -11 10 -3 6 -1 10 4 10
6 0 11 -4 11 -10z m2370 -16 c0 -8 -4 -12 -10 -9 -5 3 -10 10 -10 16 0 5 5 9
10 9 6 0 10 -7 10 -16z m-2230 -4 c0 -5 -5 -10 -11 -10 -5 0 -7 5 -4 10 3 6 8
10 11 10 2 0 4 -4 4 -10z m520 -25 c-7 -8 -16 -12 -21 -9 -13 8 -1 24 18 24
13 0 13 -3 3 -15z m-176 -34 c5 -1 3 -8 -4 -16 -7 -8 -16 -12 -21 -9 -5 3 -13
-5 -18 -18 -8 -18 -10 -19 -10 -5 -1 10 -5 15 -11 12 -5 -3 -10 -1 -10 4 0 6
8 11 17 11 15 0 14 2 -3 15 -18 14 -17 14 16 10 19 -2 39 -4 44 -4z m37 -18
c13 -16 12 -17 -3 -4 -10 7 -18 15 -18 17 0 8 8 3 21 -13z m849 -21 c0 -15 -2
-15 -10 -2 -13 20 -13 33 0 25 6 -3 10 -14 10 -23z m-907 -22 c3 -11 1 -18 -4
-14 -5 3 -9 12 -9 20 0 20 7 17 13 -6z m1495 -62 c-2 -7 3 -12 10 -10 6 1 12
-2 12 -8 0 -5 -4 -10 -9 -10 -13 0 -32 26 -24 33 10 10 13 8 11 -5z m117 -17
c3 -5 0 -13 -6 -17 -7 -4 -9 -3 -5 4 3 5 0 13 -6 15 -9 4 -10 6 -1 6 6 1 14
-3 18 -8z m-1395 -32 c0 -4 -7 -6 -15 -3 -8 4 -15 10 -15 15 0 4 7 6 15 3 8
-4 15 -10 15 -15z m1855 11 c-3 -5 -11 -10 -16 -10 -6 0 -7 5 -4 10 3 6 11 10
16 10 6 0 7 -4 4 -10z m-50 -10 c3 -5 -1 -10 -9 -10 -9 0 -16 5 -16 10 0 6 4
10 9 10 6 0 13 -4 16 -10z m-1055 -26 c0 -9 -5 -14 -12 -12 -18 6 -21 28 -4
28 9 0 16 -7 16 -16z m840 -4 c0 -5 -4 -10 -10 -10 -5 0 -10 5 -10 10 0 6 5
10 10 10 6 0 10 -4 10 -10z m139 -6 c-5 -6 -5 -15 -1 -19 4 -5 0 -4 -8 1 -8 5
-19 9 -24 9 -5 0 -11 5 -13 11 -2 7 8 11 26 10 20 0 27 -4 20 -12z m-1320 -51
c0 -11 -3 -13 -6 -5 -2 6 -9 10 -14 6 -5 -3 -9 0 -9 5 0 6 7 11 15 11 8 0 15
-8 14 -17z m475 -34 c-7 -8 -14 -24 -14 -35 0 -14 3 -15 9 -6 6 11 10 11 19 0
8 -10 5 -16 -14 -25 -18 -8 -24 -8 -24 1 0 6 -9 18 -19 25 -19 14 -18 15 12
30 22 11 31 22 29 36 -2 16 -1 17 7 5 7 -10 6 -19 -5 -31z m79 0 c-4 -15 -8
-17 -14 -8 -6 11 4 28 18 29 0 0 -1 -9 -4 -21z m-505 4 c13 -2 20 -7 18 -12
-3 -5 3 -11 14 -14 21 -5 23 -25 5 -40 -6 -5 -1 -6 10 -3 62 15 84 16 90 6 4
-6 -1 -18 -11 -26 -17 -12 -17 -13 -1 -8 12 4 17 1 17 -11 0 -15 3 -15 15 -5
9 7 18 10 22 6 3 -3 0 -6 -7 -6 -7 0 -10 -3 -7 -7 4 -3 2 -12 -4 -20 -9 -10
-8 -18 6 -33 19 -21 17 -24 -9 -14 -9 3 -14 10 -11 14 3 4 -3 18 -13 30 -22
28 -67 22 -77 -10 -13 -40 -64 -17 -60 27 1 12 -3 19 -8 16 -5 -3 -12 -1 -16
3 -3 5 -17 15 -31 21 l-25 11 25 10 c17 7 20 11 8 11 -11 1 -15 6 -12 15 3 7
-2 21 -11 29 -14 15 -13 16 17 15 18 0 43 -2 56 -5z m109 -30 c-9 -2 -15 -8
-13 -12 3 -4 -1 -8 -9 -8 -11 0 -12 4 -4 14 6 7 19 12 28 12 13 -1 13 -2 -2
-6z m700 -35 c-2 -24 -14 -23 -27 1 -8 17 -7 20 9 18 12 -1 19 -8 18 -19z
m-279 -7 c3 -8 -1 -12 -9 -9 -7 2 -15 10 -17 17 -3 8 1 12 9 9 7 -2 15 -10 17
-17z m52 -1 c0 -5 -8 -10 -17 -10 -15 0 -16 2 -3 10 19 12 20 12 20 0z m-118
-29 c-4 -20 -2 -23 14 -17 15 5 14 2 -6 -17 -19 -18 -29 -21 -41 -14 -13 8
-15 17 -8 41 5 17 9 32 9 33 0 1 8 1 18 0 14 -1 17 -7 14 -26z m-123 -14 c8
-10 7 -17 -1 -25 -19 -19 -28 -14 -28 13 0 27 12 32 29 12z m907 -6 c0 -11 -4
-17 -8 -15 -4 3 -8 12 -8 20 0 8 4 14 8 14 4 0 8 -9 8 -19z m-283 -16 c1 -5
-6 -11 -15 -13 -11 -2 -18 3 -18 13 0 17 30 18 33 0z m431 -21 c5 -12 2 -15
-10 -10 -8 3 -20 6 -25 6 -5 0 -9 5 -9 10 0 16 37 11 44 -6z m-1456 -39 c-3
-3 -9 2 -12 12 -6 14 -5 15 5 6 7 -7 10 -15 7 -18z m542 11 c0 -2 -7 -7 -16
-10 -8 -3 -12 -2 -9 4 6 10 25 14 25 6z m980 -1 c0 -7 -30 -13 -34 -7 -3 4 4
9 15 9 10 1 19 0 19 -2z m-880 -15 c-13 -8 -13 -10 2 -10 9 0 18 -5 20 -11 2
-5 12 -12 23 -14 11 -2 21 -4 23 -4 2 -1 -1 -9 -6 -18 -12 -20 11 -48 30 -37
7 4 4 -2 -7 -13 -11 -10 -24 -19 -29 -19 -5 1 -15 -12 -22 -29 -7 -16 -13 -25
-14 -19 0 6 -16 14 -35 17 -19 3 -42 13 -51 21 -18 18 -42 20 -78 6 -23 -8
-26 -7 -26 11 0 11 -4 18 -9 15 -5 -3 -11 1 -15 9 -3 8 -10 15 -17 15 -6 0 -9
-6 -6 -13 3 -8 1 -20 -4 -28 -8 -12 -10 -12 -8 1 3 30 -1 39 -16 34 -8 -4 -15
-1 -15 5 0 6 7 11 16 11 9 0 12 5 8 12 -5 7 -2 9 7 6 9 -3 37 0 65 7 41 11 52
10 65 -1 20 -18 29 -18 29 1 0 8 6 15 13 15 7 0 20 9 30 20 9 11 22 20 29 20
9 0 8 -3 -2 -10z m-467 -19 c-6 -22 38 -53 45 -32 2 6 8 11 13 11 11 0 7 -22
-6 -33 -6 -5 2 -7 18 -4 18 3 27 0 27 -9 0 -10 -9 -12 -32 -7 -28 6 -31 4 -26
-15 5 -19 3 -21 -18 -16 -15 4 -24 2 -24 -6 0 -6 5 -8 10 -5 12 7 12 -2 0 -30
-8 -19 -9 -19 -9 3 -1 12 -8 25 -16 28 -8 4 -15 15 -15 26 0 10 -4 16 -10 13
-15 -9 -12 7 5 31 8 12 12 24 8 27 -7 7 15 37 27 37 5 0 6 -9 3 -19z m1117
-21 c0 -5 -4 -10 -10 -10 -5 0 -10 5 -10 10 0 6 5 10 10 10 6 0 10 -4 10 -10z
m107 -10 c1 -11 -4 -20 -10 -20 -7 0 -13 9 -13 20 0 11 5 20 11 20 6 0 11 -9
12 -20z m-632 0 c3 -5 1 -10 -4 -10 -6 0 -11 5 -11 10 0 6 2 10 4 10 3 0 8 -4
11 -10z m-395 -107 c0 -13 -4 -23 -10 -23 -5 0 -10 -5 -10 -11 0 -5 5 -7 10
-4 6 3 10 1 10 -4 0 -6 -5 -11 -10 -11 -13 0 -29 40 -23 57 2 6 -3 10 -13 10
-9 -1 -19 4 -22 12 -3 9 2 11 19 7 13 -3 18 -3 12 0 -7 3 -13 10 -13 15 0 6
11 2 25 -8 13 -10 25 -28 25 -40z m840 7 c0 -5 -4 -10 -9 -10 -6 0 -13 5 -16
10 -3 6 1 10 9 10 9 0 16 -4 16 -10z m158 -13 c1 -4 12 -17 23 -28 17 -17 23
-19 30 -8 6 10 9 8 9 -8 0 -13 -4 -23 -10 -23 -5 0 -16 -12 -24 -27 -8 -16
-15 -23 -16 -17 0 17 -32 27 -41 13 -4 -7 -6 0 -6 14 1 15 4 27 7 27 3 0 6 9
7 19 1 14 -3 18 -13 14 -15 -6 -17 -2 -9 19 6 15 38 18 43 5z m-128 -29 c0 -4
-7 -8 -15 -8 -8 0 -15 4 -15 8 0 5 7 9 15 9 8 0 15 -4 15 -9z m-810 -20 c0
-10 -5 -18 -11 -18 -6 0 -22 -9 -36 -20 -14 -11 -23 -20 -19 -20 4 0 2 -10 -5
-22 -10 -19 -12 -19 -21 -5 -11 21 -28 22 -28 2 0 -8 -10 -20 -22 -26 -13 -6
-20 -8 -16 -4 4 5 3 14 -2 20 -16 19 -1 47 21 42 11 -3 22 0 26 5 3 6 1 8 -5
4 -18 -11 -23 11 -7 28 13 13 19 13 50 1 34 -15 50 -8 40 17 -4 9 2 14 15 14
13 0 20 -7 20 -18z m240 12 c0 -5 -4 -10 -10 -10 -5 0 -10 5 -10 10 0 6 5 10
10 10 6 0 10 -4 10 -10z m-396 -31 c-3 -5 -10 -7 -15 -3 -5 3 -7 10 -3 15 3 5
10 7 15 3 5 -3 7 -10 3 -15z m996 11 c0 -5 -7 -10 -16 -10 -8 0 -12 5 -9 10 3
6 10 10 16 10 5 0 9 -4 9 -10z m-570 -9 c0 -11 -34 -41 -47 -41 -14 0 -16 10
-7 33 4 13 54 20 54 8z m10 -52 c0 -18 -2 -19 -15 -9 -8 7 -15 16 -15 21 0 5
7 9 15 9 9 0 15 -9 15 -21z m50 -4 c10 -13 9 -15 -9 -15 -12 0 -21 6 -21 15 0
8 4 15 9 15 5 0 14 -7 21 -15z m-80 -15 c0 -5 -4 -10 -10 -10 -5 0 -10 5 -10
10 0 6 5 10 10 10 6 0 10 -4 10 -10z m-195 -10 c3 -5 -1 -10 -9 -10 -9 0 -16
5 -16 10 0 6 4 10 9 10 6 0 13 -4 16 -10z m525 -6 c0 -8 -5 -12 -10 -9 -6 4
-8 11 -5 16 9 14 15 11 15 -7z m53 -12 c5 -8 4 -19 -3 -28 -14 -16 -35 -20
-25 -4 3 6 2 10 -2 10 -5 0 -9 8 -10 19 -2 21 27 24 40 3z m-573 -22 c0 -5 -5
-10 -11 -10 -5 0 -7 5 -4 10 3 6 8 10 11 10 2 0 4 -4 4 -10z m16 -29 c-4 -5
-1 -11 6 -13 9 -3 8 -9 -5 -22 -9 -10 -17 -12 -17 -6 0 6 -5 8 -12 4 -11 -7
-5 8 15 34 11 14 21 17 13 3z m67 -11 c5 -4 2 -9 -5 -12 -7 -2 -21 4 -31 15
-19 19 -18 19 5 12 12 -4 27 -11 31 -15z m372 1 c-3 -5 4 -12 15 -16 11 -4 17
-11 14 -17 -4 -7 -9 -6 -14 2 -4 6 -11 11 -16 10 -5 0 -10 6 -12 14 -2 9 2 16
8 16 6 0 9 -4 5 -9z m101 -6 c-3 -8 2 -18 10 -23 12 -7 10 -11 -12 -20 -14 -7
-35 -10 -46 -6 -18 5 -17 8 11 35 34 32 46 37 37 14z m-1166 -31 c0 -2 -7 -4
-15 -4 -8 0 -15 4 -15 10 0 5 7 7 15 4 8 -4 15 -8 15 -10z m443 -1 c-5 -12 -3
-14 7 -8 9 5 11 4 6 -4 -4 -6 -12 -9 -17 -6 -12 8 -12 35 1 35 5 0 6 -7 3 -17z
m-398 -2 c3 -5 1 -12 -5 -16 -5 -3 -10 1 -10 9 0 18 6 21 15 7z m320 -11 c3
-5 1 -10 -4 -10 -6 0 -11 5 -11 10 0 6 2 10 4 10 3 0 8 -4 11 -10z m875 -5
c10 -12 10 -15 0 -15 -7 0 -10 -6 -7 -14 3 -8 -3 -22 -13 -31 -15 -13 -22 -14
-40 -5 -12 6 -27 9 -34 7 -6 -3 -12 4 -12 14 0 11 6 19 13 19 7 0 13 3 13 8 0
8 38 29 56 31 6 0 17 -6 24 -14z m180 11 c0 -3 -4 -8 -10 -11 -5 -3 -10 -1
-10 4 0 6 5 11 10 11 6 0 10 -2 10 -4z m-877 -116 c7 0 6 -4 -3 -10 -21 -14
-27 -12 -34 6 -5 12 -2 15 10 10 8 -3 21 -6 27 -6z m711 -15 c3 -8 1 -15 -4
-15 -6 0 -10 7 -10 15 0 8 2 15 4 15 2 0 6 -7 10 -15z m-84 -5 c0 -5 -4 -10
-9 -10 -6 0 -13 5 -16 10 -3 6 1 10 9 10 9 0 16 -4 16 -10z m-625 -10 c3 -5 1
-10 -4 -10 -6 0 -11 5 -11 10 0 6 2 10 4 10 3 0 8 -4 11 -10z m50 -8 c-3 -3
-11 0 -18 7 -9 10 -8 11 6 5 10 -3 15 -9 12 -12z m-81 -25 c-3 -9 -12 -13 -20
-10 -12 4 -11 8 3 18 21 16 26 14 17 -8z m201 3 c0 -7 -6 -15 -12 -17 -8 -3
-13 4 -13 17 0 13 5 20 13 18 6 -3 12 -11 12 -18z m-135 0 c8 -5 11 -10 5 -10
-5 0 -17 5 -25 10 -8 5 -10 10 -5 10 6 0 17 -5 25 -10z m170 -104 c0 -2 -7 -9
-15 -16 -12 -10 -15 -10 -15 4 0 9 7 16 15 16 8 0 15 -2 15 -4z m-207 -41 c4
-8 3 -16 -1 -19 -13 -8 -35 11 -28 23 10 15 23 14 29 -4z m64 9 c-3 -3 -12 -4
-19 -1 -8 3 -5 6 6 6 11 1 17 -2 13 -5z m173 -52 c0 -13 -12 -22 -22 -16 -10
6 -1 24 13 24 5 0 9 -4 9 -8z m-1050 -72 c0 -5 -4 -10 -10 -10 -5 0 -10 5 -10
10 0 6 5 10 10 10 6 0 10 -4 10 -10z"/>
<path d="M2040 1140 c0 -5 4 -10 9 -10 6 0 13 5 16 10 3 6 -1 10 -9 10 -9 0
-16 -4 -16 -10z"/>
<path d="M2183 756 c1 -22 6 -36 14 -36 8 0 12 11 10 32 -3 45 -25 48 -24 4z"/>
<path d="M2143 772 c-10 -6 -10 -12 2 -28 14 -18 14 -18 15 9 0 30 0 30 -17
19z"/>
<path d="M2243 764 c-15 -16 -16 -24 -4 -24 8 0 24 30 19 35 -2 2 -9 -3 -15
-11z"/>
<path d="M2098 745 c-10 -23 -10 -29 0 -33 7 -2 10 -8 7 -12 -3 -5 -1 -11 5
-15 6 -4 10 5 10 19 0 14 -5 26 -11 26 -8 0 -7 5 1 15 7 9 10 18 7 22 -4 3
-12 -7 -19 -22z"/>
<path d="M2134 709 c-3 -6 -2 -15 4 -21 6 -6 12 -6 16 1 4 6 2 11 -4 11 -6 0
-8 5 -5 10 3 6 4 10 1 10 -3 0 -8 -5 -12 -11z"/>
<path d="M1935 690 c-3 -5 1 -10 10 -10 9 0 13 5 10 10 -3 6 -8 10 -10 10 -2
0 -7 -4 -10 -10z"/>
<path d="M2200 539 c0 -5 5 -7 10 -4 6 3 10 8 10 11 0 2 -4 4 -10 4 -5 0 -10
-5 -10 -11z"/>
<path d="M2140 509 c0 -5 5 -7 10 -4 6 3 10 8 10 11 0 2 -4 4 -10 4 -5 0 -10
-5 -10 -11z"/>
<path d="M2425 490 c-3 -5 -1 -10 4 -10 6 0 11 5 11 10 0 6 -2 10 -4 10 -3 0
-8 -4 -11 -10z"/>
<path d="M2327 383 c-10 -9 -9 -23 2 -23 5 0 11 7 15 15 5 15 -5 20 -17 8z"/>
<path d="M2230 310 c0 -5 7 -10 16 -10 8 0 12 5 9 10 -3 6 -10 10 -16 10 -5 0
-9 -4 -9 -10z"/>
</g>
</svg>
